<svg width="1024" height="1024" viewBox="0 0 1024 1024" fill="none" xmlns="http://www.w3.org/2000/svg">
<path fill-rule="evenodd" clip-rule="evenodd" d="M492.391 698.128C360.639 799.576 309.821 889.07 303.662 947.622C303.662 947.622 461.435 786.856 674.459 717.249C980.777 617.158 1046.09 507.358 1100.64 325.243C1167.71 43.6927 950.97 -174.996 691.156 -216.165C173.297 -298.219 114.487 118.409 114.487 118.409C117.91 117.185 121.259 116.062 124.605 114.951C169.16 20.2117 286.625 -157.158 533.426 -127.857C812.517 -94.7168 1056.61 263.687 492.391 698.128Z" fill="#1A1A1A"/>
<path fill-rule="evenodd" clip-rule="evenodd" d="M472.517 -13.2875C644.464 26.3783 694.203 162.496 582.961 373.658C471.719 584.819 85.9207 794.966 228.73 1095.89C211.864 1141.86 239.252 1266.59 174.476 1195.56C109.7 1124.53 -42.6867 824.504 147.447 569.22C337.582 313.936 398.194 78.6307 185.211 94.9365C185.211 94.9365 304.814 -51.974 472.517 -13.2875Z" fill="#1A1A1A"/>
</svg>
