<svg width="440" height="956" viewBox="0 0 440 956" fill="none" xmlns="http://www.w3.org/2000/svg">
<path fill-rule="evenodd" clip-rule="evenodd" d="M327.468 607.988C249.363 668.156 219.237 721.233 215.586 755.96C215.586 755.96 309.117 660.612 435.402 619.329C616.993 559.966 655.714 494.845 688.048 386.835C727.807 219.852 599.322 90.1511 445.299 65.7345C138.303 17.0694 103.439 264.165 103.439 264.165C105.468 263.439 107.454 262.773 109.438 262.115C135.85 205.926 205.486 100.731 351.795 118.109C517.245 137.764 661.946 350.328 327.468 607.988Z" fill="#1A1A1A"/>
<path fill-rule="evenodd" clip-rule="evenodd" d="M315.686 186.058C417.62 209.583 447.106 290.313 381.16 415.55C315.213 540.786 86.5046 665.421 171.165 843.897C161.166 871.16 177.402 945.135 139.002 903.007C100.601 860.878 10.2637 682.94 122.979 531.535C235.694 380.13 271.626 240.574 145.366 250.244C145.366 250.244 216.269 163.114 315.686 186.058Z" fill="#1A1A1A"/>
<path d="M445.487 956H18.4407C196.053 928.824 365.901 935.618 445.487 944.483V956Z" fill="#1A1A1A"/>
</svg>
